# Blender 4.2.7 LTS
# www.blender.org
mtllib house2_2.mtl
o House2.1
v 1.500000 4.097816 2.474295
v 1.182302 3.780120 -2.525705
v 0.000000 5.597816 2.474295
v 0.000000 5.597816 -2.525705
v 1.182302 2.415514 -2.525705
v 1.500000 2.097816 2.474295
v 0.000000 2.415514 -2.525705
v 0.000000 4.097823 -2.525705
v 0.613163 1.960979 2.474295
v -0.613163 1.960979 2.474295
v -0.594162 3.941983 2.474295
v 0.594162 3.941983 2.474295
v -0.613163 0.097816 2.474295
v 0.613163 0.097816 2.474295
v 0.594162 2.698293 2.474295
v -0.594162 2.698293 2.474295
v -0.390692 0.191570 2.300736
v 0.390692 0.191570 2.300736
v 0.390692 1.867225 2.300736
v -0.390692 1.867225 2.300736
v -0.613163 0.000000 2.474295
v 0.613163 0.000000 2.474295
v 1.500000 0.429933 2.474295
v 1.500000 0.429933 -2.525705
v 0.000000 0.429933 -2.525705
v 0.750000 0.429933 2.474295
v -0.750000 0.429933 2.474295
v 0.613163 0.429933 2.474295
v -0.613163 0.429933 2.474295
v 0.390692 0.429933 2.300736
v -0.390692 0.429933 2.300736
v -1.600000 0.097816 -2.625705
v -1.600000 0.097816 2.574295
v 1.600000 0.097816 2.574295
v 1.600000 0.097816 -2.625705
v 0.000000 0.097816 -2.625705
v 1.600000 0.429933 2.574295
v -1.600000 0.429933 -2.625705
v -0.750000 0.429933 2.574295
v -0.750000 0.097816 2.574295
v 0.750000 0.097816 2.574295
v -0.613163 0.429933 2.574295
v -0.613163 0.097816 2.574295
v 0.613163 0.097816 2.574295
v -1.600000 0.000000 -2.625705
v -1.600000 0.000000 2.574295
v 1.600000 0.000000 2.574295
v 1.600000 0.000000 -2.625705
v 0.000000 0.000000 -2.625705
v 0.750000 0.000000 2.574295
v -0.750000 0.000000 2.574295
v 0.613163 0.000000 2.574295
v -0.613163 0.000000 2.574295
v 1.600000 0.429933 -2.625705
v -1.600000 0.429933 2.574295
v 0.000000 0.429933 -2.625705
v 0.750000 0.429933 2.574295
v 0.613163 0.429933 2.574295
v -1.536567 4.134384 -2.525705
v -1.536567 4.134384 2.474295
v 0.000000 5.670951 2.474295
v 1.536567 4.134384 2.474295
v 1.536567 4.134384 -2.525705
v 0.000000 5.670951 -2.525705
v 0.000000 5.597816 2.949730
v 1.500000 4.097816 2.949730
v 0.000000 5.597816 -3.001139
v -1.500000 4.097816 -3.001139
v -1.500000 4.097816 2.949730
v 1.500000 4.097816 -3.001139
v 1.536567 4.134384 -3.001139
v 0.000000 5.670951 2.949730
v 1.536567 4.134384 2.949730
v 0.000000 5.670951 -3.001139
v -1.536567 4.134384 -3.001139
v -1.536567 4.134384 2.949730
v -1.742804 3.855014 -2.525705
v -1.742804 3.855014 2.474295
v 1.742804 3.855014 2.474295
v 1.742804 3.855014 -2.525705
v 1.779371 3.891582 -2.525705
v -1.779371 3.891582 -2.525705
v -1.779371 3.891582 2.474295
v 1.779371 3.891582 2.474295
v 1.742804 3.855014 2.949730
v 1.742804 3.855014 -3.001139
v 1.779371 3.891582 -3.001139
v 1.779371 3.891582 2.949730
v -1.742804 3.855014 2.949730
v -1.779371 3.891582 2.949730
v -1.779371 3.891582 -3.001139
v -1.742804 3.855014 -3.001139
v 1.500000 4.097816 -0.076136
v 1.500000 2.097816 -0.076136
v 1.500000 0.429933 -0.076136
v -1.600000 0.097816 -0.076136
v 1.600000 0.097816 -0.076136
v -1.600000 0.000000 -0.076136
v 1.600000 0.000000 -0.076136
v 1.600000 0.429933 -0.076136
v -1.600000 0.429933 -0.076136
v -1.536567 4.134384 -0.076136
v 1.536567 4.134384 -0.076136
v 0.000000 5.670951 -0.076136
v -1.742804 3.855014 -0.076136
v 1.742804 3.855014 -0.076136
v -1.779371 3.891582 -0.076136
v 1.779371 3.891582 -0.076136
v 0.750000 2.542456 2.474295
v -0.750000 2.542456 2.474295
v 0.750000 4.097820 2.474295
v -0.750000 4.097820 2.474295
v 0.750000 2.542456 2.516937
v -0.750000 2.542456 2.516937
v 0.750000 4.097820 2.516937
v -0.750000 4.097820 2.516937
v 0.594162 2.698293 2.516937
v -0.594162 2.698293 2.516937
v 0.594162 3.941983 2.516937
v -0.594162 3.941983 2.516937
v -1.500000 4.097816 -0.076136
v -1.500000 4.097816 2.474295
v -1.182302 3.780120 -2.525705
v -1.500000 3.710914 0.912227
v -1.500000 3.710914 1.894046
v -1.500000 2.484718 1.894046
v -1.500000 3.710914 -1.930801
v -1.500000 2.484718 -1.930801
v -1.500000 2.484718 -0.948981
v -1.500000 3.710914 -0.948981
v -1.500000 2.484718 0.912226
v -1.463561 3.632725 0.990415
v -1.463561 3.632725 1.815857
v -1.463561 2.562907 1.815857
v -1.463561 3.632725 -1.852612
v -1.463561 2.562907 -1.852612
v -1.463561 2.562907 -1.027170
v -1.463561 3.632725 -1.027170
v -1.463561 2.562907 0.990415
v -1.538657 3.710914 0.912227
v -1.538657 3.710914 1.894046
v -1.538657 2.484718 1.894046
v -1.538657 3.710914 -1.930801
v -1.538657 2.484718 -1.930801
v -1.538657 2.484718 -0.948981
v -1.538657 3.710914 -0.948981
v -1.538657 2.484718 0.912226
v -1.538657 3.632725 0.990415
v -1.538657 3.632725 1.815857
v -1.538657 2.562907 1.815857
v -1.538657 3.632725 -1.852612
v -1.538657 2.562907 -1.852612
v -1.538657 2.562907 -1.027170
v -1.538657 3.632725 -1.027170
v -1.538657 2.562907 0.990415
v -1.500000 0.429933 2.474295
v -1.500000 2.097816 2.474295
v -1.500000 2.097816 -0.076136
v -1.182302 2.415514 -2.525705
v -1.500000 0.429933 -2.525705
v -1.500000 0.429933 -0.076136
v -1.500000 0.808612 1.824371
v -1.500000 1.719136 1.824371
v -1.500000 1.719136 -0.975323
v -1.500000 1.719136 -1.884631
v -1.500000 0.808612 -1.884631
v -1.500000 0.808612 -0.975323
v -1.500000 1.719136 0.915063
v -1.500000 0.808612 0.915063
v -1.445485 0.902892 1.730091
v -1.445485 1.624857 1.730091
v -1.445485 1.624857 -1.069602
v -1.445485 1.624857 -1.790352
v -1.445485 0.902892 -1.790352
v -1.445485 0.902891 -1.069602
v -1.445485 1.624857 1.009342
v -1.445485 0.902891 1.009342
v -1.538657 0.808612 1.824371
v -1.538657 1.719136 1.824371
v -1.538657 1.719136 -0.975323
v -1.538657 1.719136 -1.884631
v -1.538657 0.808612 -1.884631
v -1.538657 0.808612 -0.975323
v -1.538657 1.719136 0.915063
v -1.538657 0.808612 0.915063
v -1.538657 0.902892 1.730091
v -1.538657 1.624857 1.730091
v -1.538657 1.624857 -1.069602
v -1.538657 1.624857 -1.790352
v -1.538657 0.902892 -1.790352
v -1.538657 0.902891 -1.069602
v -1.538657 1.624857 1.009342
v -1.538657 0.902891 1.009342
v 1.500000 2.097816 -2.525705
v 1.500000 4.097816 -2.525705
v -1.500000 4.097816 -2.525705
v -1.500000 2.097816 -2.525705
v 0.000000 2.097816 -2.525705
v 0.000000 3.780125 -2.525705
v 0.000000 2.529868 -2.419468
v 0.000000 3.665770 -2.419468
v 1.073574 2.529868 -2.419468
v 1.073574 3.665766 -2.419468
v -1.073574 3.665766 -2.419468
v -1.073574 2.529868 -2.419468
v 1.182302 3.780120 -2.564669
v 1.073574 3.665766 -2.564669
v 1.182302 2.415514 -2.564669
v -1.182302 3.780120 -2.564669
v -1.182302 2.415514 -2.564669
v 0.000000 2.415514 -2.564669
v 0.000000 3.780125 -2.564669
v 1.073574 2.529868 -2.564669
v -1.073574 3.665766 -2.564669
v -1.073574 2.529868 -2.564669
v 0.000000 2.529868 -2.564669
v 0.000000 3.665770 -2.564669
v 1.500000 2.395210 -0.814605
v 1.500000 2.395210 -1.886485
v 1.500000 3.800422 -1.886485
v 1.500000 3.800422 -0.814606
v 1.500000 0.727327 -0.814605
v 1.500000 0.727327 -1.886485
v 1.500000 1.800422 -1.886485
v 1.500000 1.800422 -0.814605
v 1.500000 0.727327 1.762489
v 1.500000 0.727327 0.690609
v 1.500000 1.800422 0.690609
v 1.500000 1.800422 1.762489
v 1.500000 2.395210 1.762489
v 1.500000 2.395210 0.690609
v 1.500000 3.800422 0.690609
v 1.500000 3.800422 1.762489
v 1.460577 2.513849 -1.767846
v 1.460577 2.513849 -0.933245
v 1.460577 3.681783 -0.933245
v 1.460577 3.681783 -1.767846
v 1.460577 0.845966 -1.767846
v 1.460577 0.845966 -0.933245
v 1.460577 1.681783 -0.933245
v 1.460577 1.681783 -1.767846
v 1.460577 0.845966 0.809248
v 1.460577 0.845966 1.643849
v 1.460577 1.681783 1.643849
v 1.460577 1.681783 0.809248
v 1.460577 2.513849 0.809248
v 1.460577 2.513849 1.643849
v 1.460577 3.681783 1.643849
v 1.460577 3.681783 0.809248
v 1.533873 2.395210 -1.886485
v 1.533873 2.395210 -0.814605
v 1.533873 3.800422 -0.814606
v 1.533873 3.800422 -1.886485
v 1.533873 0.727327 -1.886485
v 1.533873 0.727327 -0.814605
v 1.533873 1.800422 -0.814605
v 1.533873 1.800422 -1.886485
v 1.533873 0.727327 0.690609
v 1.533873 0.727327 1.762489
v 1.533873 1.800422 1.762489
v 1.533873 1.800422 0.690609
v 1.533873 2.395210 0.690609
v 1.533873 2.395210 1.762489
v 1.533873 3.800422 1.762489
v 1.533873 3.800422 0.690609
v 1.533873 2.513849 -1.767846
v 1.533873 2.513849 -0.933245
v 1.533873 3.681783 -0.933245
v 1.533873 3.681783 -1.767846
v 1.533873 0.845966 -1.767846
v 1.533873 0.845966 -0.933245
v 1.533873 1.681783 -0.933245
v 1.533873 1.681783 -1.767846
v 1.533873 0.845966 0.809248
v 1.533873 0.845966 1.643849
v 1.533873 1.681783 1.643849
v 1.533873 1.681783 0.809248
v 1.533873 2.513849 0.809248
v 1.533873 2.513849 1.643849
v 1.533873 3.681783 1.643849
v 1.533873 3.681783 0.809248
v -0.613163 0.097816 2.300736
v 0.613163 0.097816 2.300736
v 0.613163 0.429933 2.300736
v 0.613163 1.960979 2.300736
v -0.613163 1.960979 2.300736
v -0.613163 0.429933 2.300736
v 0.865793 2.035405 3.309451
v 1.000000 1.968981 3.500000
v 0.865793 2.035405 3.234779
v 1.000000 1.968981 2.452363
v 0.000000 2.463923 3.500000
v 0.000000 2.463923 2.452363
v 0.880916 2.071245 3.309451
v 0.880916 2.071245 3.234779
v 0.000000 2.503300 3.500000
v 1.017467 2.004272 3.500000
v 1.017467 2.004272 2.452363
v 0.000000 2.503300 2.452363
v 0.880916 2.071245 2.452363
v 0.880916 2.071245 3.500000
v 1.000000 1.968981 3.309451
v 1.000000 1.968981 3.234779
v 0.000000 2.463923 3.234779
v 0.000000 2.463923 3.309451
v 0.865793 2.035405 2.452363
v 0.865793 2.035405 3.500000
v 1.017467 2.004272 3.234779
v 1.017467 2.004272 3.309451
v 0.000000 2.503300 3.309451
v 0.000000 2.503300 3.234779
v 0.774977 2.080354 2.452363
v 0.788514 2.116565 2.452363
v 0.788514 2.116565 3.500000
v 0.774977 2.080354 3.234779
v 0.774977 2.080354 3.500000
v 0.788514 2.116565 3.234779
v 0.788514 2.116565 3.309451
v 0.774977 2.080354 3.309451
v 0.774977 0.000000 3.234779
v 0.865793 0.000000 3.234779
v 0.865793 0.000000 3.309451
v 0.774977 0.000000 3.309451
v -0.865793 2.035405 3.309451
v -1.000000 1.968981 3.500000
v -0.865793 2.035405 3.234779
v -1.000000 1.968981 2.452363
v -0.880916 2.071245 3.309451
v -0.880916 2.071245 3.234779
v -1.017467 2.004272 3.500000
v -1.017467 2.004272 2.452363
v -0.880916 2.071245 2.452363
v -0.880916 2.071245 3.500000
v -1.000000 1.968981 3.309451
v -1.000000 1.968981 3.234779
v -0.865793 2.035405 2.452363
v -0.865793 2.035405 3.500000
v -1.017467 2.004272 3.234779
v -1.017467 2.004272 3.309451
v -0.774977 2.080354 2.452363
v -0.788514 2.116565 2.452363
v -0.788514 2.116565 3.500000
v -0.774977 2.080354 3.234779
v -0.774977 2.080354 3.500000
v -0.788514 2.116565 3.234779
v -0.788514 2.116565 3.309451
v -0.774977 2.080354 3.309451
v -0.774977 0.000000 3.234779
v -0.865793 0.000000 3.234779
v -0.865793 0.000000 3.309451
v -0.774977 0.000000 3.309451
v -2.207107 1.390709 2.375129
v -1.397357 2.200459 2.375129
v -2.207107 1.390709 -2.426539
v -1.397357 2.200459 -2.426539
v -2.224295 1.407897 -2.426539
v -2.224295 1.407897 2.375129
v -1.414545 2.217647 2.375129
v -1.414545 2.217647 -2.426539
v 0.498268 1.127437 2.322706
v 0.498268 1.169721 2.322706
v 0.471007 1.100177 2.278767
v 0.471007 1.196982 2.278767
v 0.540551 1.127437 2.322706
v 0.540551 1.169721 2.322706
v 0.567812 1.100177 2.278767
v 0.567812 1.196982 2.278767
v 0.471007 1.100177 2.322706
v 0.471007 1.196982 2.322706
v 0.567812 1.196982 2.322706
v 0.567812 1.100177 2.322706
v 0.498268 1.127437 2.386030
v 0.498268 1.169721 2.386030
v 0.540551 1.169721 2.386030
v 0.540551 1.127437 2.386030
v 0.498268 1.127437 2.429984
v 0.498268 1.169721 2.429984
v 0.540551 1.169721 2.429984
v 0.540551 1.127437 2.429984
v 0.340266 1.136005 2.394936
v 0.340266 1.161153 2.394936
v 0.340266 1.136005 2.421078
v 0.340266 1.161153 2.421078
vn -0.7071 0.7071 -0.0000
vn -0.0000 -0.0000 -1.0000
vn -0.0000 1.0000 -0.0000
vn -1.0000 -0.0000 -0.0000
vn -0.0000 -0.0000 1.0000
vn -0.0000 -1.0000 -0.0000
vn 1.0000 -0.0000 -0.0000
vn 0.7071 0.7071 -0.0000
vn 0.7071 -0.7071 -0.0000
vn -0.7071 -0.7071 -0.0000
vn -0.4436 -0.8962 -0.0000
vn 0.4403 0.8978 -0.0000
vn 0.8962 -0.4436 -0.0000
vn 0.4436 -0.8962 -0.0000
vn -0.4403 0.8978 -0.0000
vn -0.8962 -0.4436 -0.0000
vn -0.0563 -0.0000 0.9984
vn -0.0541 -0.9985 -0.0000
vn -0.0563 -0.0000 -0.9984
vn -0.0541 0.9985 -0.0000
s 0
usemtl wall
f 122//5 112//5 3//5
f 109//5 6//5 1//5 111//5
f 24//2 25//2 198//2 194//2
f 157//5 110//5 112//5 122//5
f 156//5 27//5 110//5 157//5
f 25//2 160//2 197//2 198//2
f 8//2 196//2 4//2 195//2
f 26//5 23//5 6//5 109//5
f 3//5 111//5 1//5
f 111//5 3//5 112//5
f 124//4 125//4 122//4 121//4
f 125//4 126//4 157//4 122//4
f 128//4 127//4 196//4 197//4
f 129//4 128//4 197//4 158//4
f 127//4 130//4 121//4 196//4
f 126//4 131//4 158//4 157//4
f 130//4 129//4 158//4 121//4
f 131//4 124//4 121//4 158//4
f 163//4 162//4 156//4 157//4
f 165//4 164//4 158//4 197//4
f 166//4 165//4 197//4 160//4
f 167//4 166//4 160//4 161//4
f 168//4 163//4 157//4 158//4
f 162//4 169//4 161//4 156//4
f 164//4 167//4 161//4 158//4
f 169//4 168//4 158//4 161//4
f 5//2 2//2 195//2 194//2
f 123//2 159//2 197//2 196//2
f 7//2 5//2 194//2 198//2
f 159//2 7//2 198//2 197//2
f 2//2 199//2 8//2 195//2
f 199//2 123//2 196//2 8//2
f 94//7 194//7 219//7 218//7
f 194//7 195//7 220//7 219//7
f 195//7 93//7 221//7 220//7
f 93//7 94//7 218//7 221//7
f 95//7 24//7 223//7 222//7
f 24//7 194//7 224//7 223//7
f 194//7 94//7 225//7 224//7
f 94//7 95//7 222//7 225//7
f 23//7 95//7 227//7 226//7
f 95//7 94//7 228//7 227//7
f 94//7 6//7 229//7 228//7
f 6//7 23//7 226//7 229//7
f 6//7 94//7 231//7 230//7
f 94//7 93//7 232//7 231//7
f 93//7 1//7 233//7 232//7
f 1//7 6//7 230//7 233//7
usemtl roof
f 102//1 59//1 82//1 107//1
f 69//5 76//5 90//5 89//5
f 104//8 103//8 63//8 64//8
f 102//1 104//1 64//1 59//1
f 61//1 60//1 76//1 72//1
f 122//9 3//9 65//9 69//9
f 73//5 66//5 85//5 88//5
f 3//10 1//10 66//10 65//10
f 70//2 67//2 74//2 71//2
f 67//2 68//2 75//2 74//2
f 65//5 66//5 73//5 72//5
f 69//5 65//5 72//5 76//5
f 62//8 61//8 72//8 73//8
f 76//1 60//1 83//1 90//1
f 195//10 4//10 67//10 70//10
f 64//8 63//8 71//8 74//8
f 4//9 196//9 68//9 67//9
f 121//9 122//9 78//9 105//9
f 59//1 75//1 91//1 82//1
f 59//1 64//1 74//1 75//1
f 105//10 78//10 83//10 107//10
f 106//9 80//9 81//9 108//9
f 79//9 84//9 88//9 85//9
f 83//10 78//10 89//10 90//10
f 77//10 82//10 91//10 92//10
f 81//9 80//9 86//9 87//9
f 93//10 195//10 80//10 106//10
f 75//2 68//2 92//2 91//2
f 70//2 71//2 87//2 86//2
f 195//10 70//10 86//10 80//10
f 103//8 62//8 84//8 108//8
f 71//8 63//8 81//8 87//8
f 66//10 1//10 79//10 85//10
f 62//8 73//8 88//8 84//8
f 68//9 196//9 77//9 92//9
f 122//9 69//9 89//9 78//9
f 63//8 103//8 108//8 81//8
f 1//10 93//10 106//10 79//10
f 79//9 106//9 108//9 84//9
f 77//10 105//10 107//10 82//10
f 196//9 121//9 105//9 77//9
f 60//1 61//1 104//1 102//1
f 61//8 62//8 103//8 104//8
f 60//1 102//1 107//1 83//1
f 316//5 307//5 301//5 314//5
f 316//11 319//11 288//11 307//11
f 301//12 297//12 309//12 294//12
f 295//12 308//12 298//12 300//12
f 295//12 317//12 318//12 294//12
f 307//11 288//11 302//11 289//11
f 317//12 295//12 300//12 313//12
f 314//12 301//12 294//12 318//12
f 307//5 289//5 297//5 301//5
f 303//13 291//13 298//13 308//13
f 290//11 306//11 291//11 303//11
f 304//11 293//11 312//11 315//11
f 289//13 302//13 309//13 297//13
f 308//12 295//12 294//12 309//12
f 303//13 308//13 309//13 302//13
f 317//12 311//12 310//12 318//12
f 315//11 312//11 306//11 290//11
f 290//11 303//11 302//11 288//11
f 304//11 315//11 319//11 305//11
f 296//12 314//12 318//12 310//12
f 311//12 317//12 313//12 299//12
f 292//11 305//11 319//11 316//11
f 292//5 316//5 314//5 296//5
f 344//5 342//5 333//5 337//5
f 344//14 337//14 324//14 347//14
f 333//15 328//15 339//15 330//15
f 329//15 332//15 331//15 338//15
f 329//15 328//15 346//15 345//15
f 337//14 325//14 334//14 324//14
f 345//15 341//15 332//15 329//15
f 342//15 346//15 328//15 333//15
f 337//5 333//5 330//5 325//5
f 335//16 338//16 331//16 327//16
f 326//14 335//14 327//14 336//14
f 304//14 343//14 340//14 293//14
f 325//16 330//16 339//16 334//16
f 338//15 339//15 328//15 329//15
f 335//16 334//16 339//16 338//16
f 345//15 346//15 310//15 311//15
f 343//14 326//14 336//14 340//14
f 326//14 324//14 334//14 335//14
f 304//14 305//14 347//14 343//14
f 296//15 310//15 346//15 342//15
f 311//15 299//15 341//15 345//15
f 292//14 344//14 347//14 305//14
f 292//5 296//5 342//5 344//5
f 352//9 354//9 355//9 353//9
f 357//1 358//1 359//1 356//1
f 354//10 352//10 357//10 356//10
f 355//2 354//2 356//2 359//2
f 352//5 353//5 358//5 357//5
usemtl base
f 244//2 276//2 275//2 243//2
f 150//3 134//3 139//3 155//3
f 159//4 123//4 209//4 210//4
f 132//6 133//6 149//6 148//6
f 267//3 266//3 234//3 235//3
f 237//5 234//5 266//5 269//5
f 28//4 9//4 285//4 284//4
f 10//5 9//5 109//5 110//5
f 29//5 10//5 110//5 27//5
f 9//6 10//6 286//6 285//6
f 13//3 14//3 283//3 282//3
f 29//7 13//7 282//7 287//7
f 25//3 24//3 54//3 56//3
f 26//3 28//3 58//3 57//3
f 14//5 13//5 21//5 22//5
f 27//3 156//3 55//3 39//3
f 29//3 27//3 39//3 42//3
f 160//3 25//3 56//3 38//3
f 10//7 29//7 287//7 286//7
f 9//5 28//5 26//5 109//5
f 21//7 13//7 43//7 53//7
f 14//4 28//4 284//4 283//4
f 161//3 160//3 38//3 101//3
f 14//4 22//4 52//4 44//4
f 95//3 23//3 37//3 100//3
f 58//5 44//5 41//5 57//5
f 40//5 33//5 46//5 51//5
f 32//2 36//2 49//2 45//2
f 41//5 44//5 52//5 50//5
f 34//5 41//5 50//5 47//5
f 96//4 32//4 45//4 98//4
f 43//5 40//5 51//5 53//5
f 36//2 35//2 48//2 49//2
f 97//7 34//7 47//7 99//7
f 43//5 42//5 39//5 40//5
f 41//5 34//5 37//5 57//5
f 97//7 35//7 54//7 100//7
f 96//4 33//4 55//4 101//4
f 36//2 32//2 38//2 56//2
f 33//5 40//5 39//5 55//5
f 35//2 36//2 56//2 54//2
f 13//7 29//7 42//7 43//7
f 28//4 14//4 44//4 58//4
f 23//3 26//3 57//3 37//3
f 32//4 96//4 101//4 38//4
f 34//7 97//7 100//7 37//7
f 35//7 97//7 99//7 48//7
f 33//4 96//4 98//4 46//4
f 24//3 95//3 100//3 54//3
f 156//3 161//3 101//3 55//3
f 272//2 271//2 239//2 240//2
f 172//6 188//6 189//6 173//6
f 155//5 139//5 132//5 148//5
f 236//2 268//2 267//2 235//2
f 110//6 109//6 113//6 114//6
f 16//7 11//7 120//7 118//7
f 109//7 111//7 115//7 113//7
f 112//4 110//4 114//4 116//4
f 117//5 118//5 114//5 113//5
f 119//5 117//5 113//5 115//5
f 120//5 119//5 115//5 116//5
f 118//5 120//5 116//5 114//5
f 12//4 15//4 117//4 119//4
f 111//3 112//3 116//3 115//3
f 11//6 12//6 119//6 120//6
f 15//3 16//3 118//3 117//3
f 150//2 149//2 133//2 134//2
f 126//5 125//5 141//5 142//5
f 186//2 187//2 171//2 170//2
f 125//3 124//3 140//3 141//3
f 124//2 131//2 147//2 140//2
f 153//2 154//2 138//2 137//2
f 129//5 130//5 146//5 145//5
f 136//3 152//3 153//3 137//3
f 154//6 151//6 135//6 138//6
f 135//5 151//5 152//5 136//5
f 148//4 149//4 141//4 140//4
f 149//4 150//4 142//4 141//4
f 152//4 151//4 143//4 144//4
f 153//4 152//4 144//4 145//4
f 151//4 154//4 146//4 143//4
f 150//4 155//4 147//4 142//4
f 154//4 153//4 145//4 146//4
f 155//4 148//4 140//4 147//4
f 127//2 128//2 144//2 143//2
f 128//6 129//6 145//6 144//6
f 130//3 127//3 143//3 146//3
f 131//6 126//6 142//6 147//6
f 162//5 163//5 179//5 178//5
f 192//5 193//5 177//5 176//5
f 168//2 169//2 185//2 184//2
f 172//2 175//2 191//2 188//2
f 167//5 164//5 180//5 183//5
f 186//3 170//3 177//3 193//3
f 169//6 162//6 178//6 185//6
f 192//6 176//6 171//6 187//6
f 173//5 189//5 190//5 174//5
f 174//3 190//3 191//3 175//3
f 187//4 186//4 178//4 179//4
f 189//4 188//4 180//4 181//4
f 190//4 189//4 181//4 182//4
f 191//4 190//4 182//4 183//4
f 192//4 187//4 179//4 184//4
f 186//4 193//4 185//4 178//4
f 188//4 191//4 183//4 180//4
f 193//4 192//4 184//4 185//4
f 164//3 165//3 181//3 180//3
f 165//2 166//2 182//2 181//2
f 166//6 167//6 183//6 182//6
f 163//3 168//3 184//3 179//3
f 214//7 204//7 205//7 215//7
f 200//3 216//3 215//3 205//3
f 199//3 2//3 206//3 212//3
f 202//3 213//3 216//3 200//3
f 2//7 5//7 208//7 206//7
f 217//6 201//6 204//6 214//6
f 207//6 203//6 201//6 217//6
f 208//2 211//2 216//2 213//2
f 212//2 206//2 207//2 217//2
f 206//2 208//2 213//2 207//2
f 209//2 212//2 217//2 214//2
f 211//2 210//2 215//2 216//2
f 210//2 209//2 214//2 215//2
f 123//3 199//3 212//3 209//3
f 5//6 7//6 211//6 208//6
f 7//6 159//6 210//6 211//6
f 237//6 269//6 268//6 236//6
f 228//3 229//3 260//3 261//3
f 227//2 228//2 261//2 258//2
f 280//6 248//6 249//6 281//6
f 229//5 226//5 259//5 260//5
f 281//5 249//5 246//5 278//5
f 220//3 221//3 252//3 253//3
f 243//3 275//3 274//3 242//3
f 226//6 227//6 258//6 259//6
f 279//2 247//2 248//2 280//2
f 219//2 220//2 253//2 250//2
f 272//6 240//6 241//6 273//6
f 273//5 241//5 238//5 270//5
f 242//5 274//5 277//5 245//5
f 239//3 271//3 270//3 238//3
f 245//6 277//6 276//6 244//6
f 278//3 246//3 247//3 279//3
f 251//7 250//7 266//7 267//7
f 250//7 253//7 269//7 266//7
f 253//7 252//7 268//7 269//7
f 252//7 251//7 267//7 268//7
f 255//7 254//7 270//7 271//7
f 254//7 257//7 273//7 270//7
f 257//7 256//7 272//7 273//7
f 256//7 255//7 271//7 272//7
f 259//7 258//7 274//7 275//7
f 258//7 261//7 277//7 274//7
f 261//7 260//7 276//7 277//7
f 260//7 259//7 275//7 276//7
f 263//7 262//7 278//7 279//7
f 262//7 265//7 281//7 278//7
f 265//7 264//7 280//7 281//7
f 264//7 263//7 279//7 280//7
f 222//6 223//6 254//6 255//6
f 225//5 222//5 255//5 256//5
f 223//2 224//2 257//2 254//2
f 230//6 231//6 262//6 263//6
f 224//3 225//3 256//3 257//3
f 233//5 230//5 263//5 264//5
f 231//2 232//2 265//2 262//2
f 218//6 219//6 250//6 251//6
f 232//3 233//3 264//3 265//3
f 221//5 218//5 251//5 252//5
f 18//5 17//5 282//5 283//5
f 19//5 30//5 284//5 285//5
f 20//5 19//5 285//5 286//5
f 17//5 31//5 287//5 282//5
f 30//5 18//5 283//5 284//5
f 31//5 20//5 286//5 287//5
f 207//4 213//4 202//4 203//4
f 288//5 319//5 323//5 322//5
f 290//7 288//7 322//7 321//7
f 319//4 315//4 320//4 323//4
f 315//2 290//2 321//2 320//2
f 324//5 350//5 351//5 347//5
f 326//4 349//4 350//4 324//4
f 347//7 351//7 348//7 343//7
f 343//2 348//2 349//2 326//2
f 368//4 369//4 363//4 362//4
f 366//7 367//7 370//7 371//7
f 365//3 361//3 373//3 374//3
f 362//6 366//6 371//6 368//6
f 367//3 363//3 369//3 370//3
f 360//5 361//5 369//5 368//5
f 365//5 364//5 371//5 370//5
f 364//5 360//5 368//5 371//5
f 361//5 365//5 370//5 369//5
f 372//6 375//6 379//6 376//6
f 364//7 365//7 374//7 375//7
f 360//6 364//6 375//6 372//6
f 361//4 360//4 372//4 373//4
f 379//5 378//5 377//5 376//5
f 376//17 377//17 383//17 382//17
f 374//3 373//3 377//3 378//3
f 375//7 374//7 378//7 379//7
f 381//4 380//4 382//4 383//4
f 372//18 376//18 382//18 380//18
f 373//19 372//19 380//19 381//19
f 377//20 373//20 381//20 383//20
usemtl window
f 15//5 12//5 11//5 16//5
f 139//4 134//4 133//4 132//4
f 136//4 137//4 138//4 135//4
f 177//4 170//4 171//4 176//4
f 174//4 175//4 172//4 173//4
f 200//2 205//2 204//2 201//2
f 202//2 200//2 201//2 203//2
f 235//7 234//7 237//7 236//7
f 239//7 238//7 241//7 240//7
f 243//7 242//7 245//7 244//7
f 247//7 246//7 249//7 248//7
usemtl door
f 30//5 19//5 20//5 31//5
f 18//5 30//5 31//5 17//5
